<?xml version="1.0" encoding="UTF-8"?>
<svg viewBox="0 0 36 36" version="1.1" xmlns="http://www.w3.org/2000/svg" xmlns:xlink="http://www.w3.org/1999/xlink">
    <!-- Generator: Sketch 50.2 (55047) - http://www.bohemiancoding.com/sketch -->
    <title>icon-play-white</title>
    <desc>Created with Sketch.</desc>
    <defs>
        <path d="M14,28 C6.268,28 0,21.732 0,14 C0,6.268 6.268,0 14,0 C21.732,0 28,6.268 28,14 C28,21.732 21.732,28 14,28 Z M14,26 C20.627,26 26,20.627 26,14 C26,7.373 20.627,2 14,2 C7.373,2 2,7.373 2,14 C2,20.627 7.373,26 14,26 Z" id="path-1"></path>
        <filter x="-21.4%" y="-21.4%" width="142.9%" height="142.9%" filterUnits="objectBoundingBox" id="filter-2">
            <feOffset dx="0" dy="0" in="SourceAlpha" result="shadowOffsetOuter1"></feOffset>
            <feGaussianBlur stdDeviation="2" in="shadowOffsetOuter1" result="shadowBlurOuter1"></feGaussianBlur>
            <feColorMatrix values="0 0 0 0 0   0 0 0 0 0   0 0 0 0 0  0 0 0 1 0" type="matrix" in="shadowBlurOuter1"></feColorMatrix>
        </filter>
        <path d="M10.87,5.225 C10.052,4.663 9,5.225 9,6.125 L9,21.875 C9,22.775 10.052,23.337 10.87,22.775 L22.563,14.9 C23.147,14.45 23.147,13.55 22.563,13.1 L10.87,5.225 Z" id="path-3"></path>
        <filter x="-42.9%" y="-33.3%" width="185.7%" height="166.7%" filterUnits="objectBoundingBox" id="filter-4">
            <feOffset dx="0" dy="0" in="SourceAlpha" result="shadowOffsetOuter1"></feOffset>
            <feGaussianBlur stdDeviation="2" in="shadowOffsetOuter1" result="shadowBlurOuter1"></feGaussianBlur>
            <feColorMatrix values="0 0 0 0 0   0 0 0 0 0   0 0 0 0 0  0 0 0 1 0" type="matrix" in="shadowBlurOuter1"></feColorMatrix>
        </filter>
    </defs>
    <g id="Page-1" stroke="none" stroke-width="1" fill="none" fill-rule="evenodd">
        <g id="icon-play-white" transform="translate(4.000000, 4.000000)" fill-rule="nonzero">
            <g id="Shape">
                <use fill="black" fill-opacity="1" filter="url(#filter-2)" xlink:href="#path-1"></use>
                <use fill="#FFFFFF" fill-rule="evenodd" xlink:href="#path-1"></use>
            </g>
            <g id="Shape">
                <use fill="black" fill-opacity="1" filter="url(#filter-4)" xlink:href="#path-3"></use>
                <use fill="#FFFFFF" fill-rule="evenodd" xlink:href="#path-3"></use>
            </g>
        </g>
    </g>
</svg>